<svg xmlns="http://www.w3.org/2000/svg" viewBox="0 0 24 24" fill="currentColor"><path d="M20.447 20.452h-3.554v-5.569c0-1.328-.475-2.236-1.986-2.236-1.081 0-1.722.722-2.004 1.418-.103.249-.129.597-.129.946v5.441h-3.554s.05-8.736 0-9.646h3.554v1.364c.43-.664 1.199-1.608 2.928-1.608 2.136 0 3.745 1.393 3.745 4.389v5.501zM5.337 9.433c-1.144 0-1.915-.758-1.915-1.704 0-.956.769-1.704 1.959-1.704 1.14 0 1.912.748 1.935 1.704 0 .946-.795 1.704-1.979 1.704zm1.946 11.019H3.391V9.956h3.892v10.496zM22.225 0H1.771C.792 0 0 .774 0 1.729v20.542C0 23.227.792 24 1.771 24h20.451C23.2 24 24 23.227 24 22.271V1.729C24 .774 23.2 0 22.225 0z"/></svg>